<?xml version="1.0" standalone="no"?>
<!DOCTYPE svg PUBLIC "-//W3C//DTD SVG 20010904//EN"
 "http://www.w3.org/TR/2001/REC-SVG-20010904/DTD/svg10.dtd">
<svg version="1.0" xmlns="http://www.w3.org/2000/svg"
 width="78.000000pt" height="91.000000pt" viewBox="0 0 78.000000 91.000000"
 preserveAspectRatio="xMidYMid meet">

<g transform="translate(0.000000,91.000000) scale(0.100000,-0.100000)"
fill="#000000" stroke="none">
<path d="M150 784 c-85 -30 -90 -46 -90 -314 0 -320 0 -320 244 -320 l147 0
-27 45 c-22 39 -26 54 -22 101 11 130 140 195 256 128 l44 -26 -4 159 c-5 236
7 227 -303 230 -126 1 -237 0 -245 -3z m491 -53 c27 -28 29 -34 29 -111 0 -77
-2 -83 -29 -111 -28 -27 -34 -29 -111 -29 -77 0 -83 2 -111 29 -27 28 -29 34
-29 111 0 77 2 83 29 111 28 27 34 29 111 29 77 0 83 -2 111 -29z m-393 -96
c13 -13 26 -39 29 -59 5 -34 4 -36 -21 -36 -20 0 -26 5 -28 23 0 12 -1 29 -2
37 -1 8 -8 15 -16 16 -8 1 -25 2 -37 2 -18 2 -23 8 -23 28 0 25 2 26 37 19 21
-4 48 -17 61 -30z m-48 -246 c5 -1 16 -2 23 -3 6 -1 21 2 32 7 15 6 14 3 -5
-12 -14 -11 -19 -21 -12 -21 6 0 12 -7 12 -16 0 -8 4 -12 10 -9 6 3 10 2 10
-3 0 -6 -6 -12 -14 -15 -11 -4 -14 -20 -12 -59 2 -29 2 -39 -1 -23 -2 17 -14
38 -26 48 -12 10 -16 16 -10 12 8 -4 18 4 25 20 10 23 8 28 -25 58 -21 18 -37
39 -36 47 0 8 4 5 9 -7 5 -13 14 -24 20 -24z"/>
<path d="M468 653 c-10 -2 -18 -11 -18 -19 0 -20 13 -17 28 6 7 11 11 19 10
19 -2 -1 -11 -3 -20 -6z"/>
<path d="M500 641 c0 -11 -6 -22 -12 -24 -7 -3 -1 -6 15 -6 22 -1 27 3 27 24
0 16 -6 25 -15 25 -8 0 -15 -9 -15 -19z"/>
<path d="M560 641 c0 -11 -6 -21 -12 -24 -7 -2 1 -6 17 -8 29 -5 31 -3 27 23
-5 31 -32 39 -32 9z"/>
<path d="M470 528 c0 -44 16 -43 22 2 3 26 19 31 27 9 2 -7 -1 -9 -8 -5 -7 5
-11 -2 -11 -18 0 -24 3 -26 45 -26 l45 0 0 40 0 40 -60 0 -60 0 0 -42z m100
19 c0 -7 -9 -13 -20 -14 -11 -1 -20 4 -20 13 0 8 9 14 20 14 11 0 20 -6 20
-13z"/>
<path d="M560 379 c0 -6 -14 -30 -30 -54 -18 -26 -26 -46 -20 -50 6 -4 8 -10
6 -13 -2 -4 8 -25 24 -46 l29 -38 30 43 c17 23 31 46 31 52 0 11 -59 117 -66
117 -2 0 -4 -5 -4 -11z m-4 -135 c18 -14 18 -14 -6 -3 -31 14 -36 19 -24 19 6
0 19 -7 30 -16z"/>
</g>
</svg>
