<?xml version="1.0" standalone="no"?>
<!DOCTYPE svg PUBLIC "-//W3C//DTD SVG 20010904//EN"
 "http://www.w3.org/TR/2001/REC-SVG-20010904/DTD/svg10.dtd">
<svg version="1.0" xmlns="http://www.w3.org/2000/svg"
 width="103.000000pt" height="103.000000pt" viewBox="0 0 103.000000 103.000000"
 preserveAspectRatio="xMidYMid meet">

<g transform="translate(0.000000,103.000000) scale(0.100000,-0.100000)"
fill="#000000" stroke="none">
<path d="M402 758 c-17 -17 -15 -103 3 -138 14 -27 14 -33 0 -60 -19 -37 -22
-239 -3 -258 16 -16 120 -16 136 0 17 17 15 103 -3 138 -14 27 -14 33 0 60 19
37 22 239 3 258 -7 7 -37 12 -68 12 -31 0 -61 -5 -68 -12z"/>
</g>
</svg>
